<?xml version="1.0" encoding="utf-8"?>
<!-- Generator: Adobe Illustrator 19.1.0, SVG Export Plug-In . SVG Version: 6.00 Build 0)  -->
<svg version="1.1" id="Layer_1" xmlns="http://www.w3.org/2000/svg" xmlns:xlink="http://www.w3.org/1999/xlink" x="0px" y="0px"
	 viewBox="0 0 299.3 87.2" style="enable-background:new 0 0 299.3 87.2;" xml:space="preserve">
<style type="text/css">
	.st0{fill:#FFFFFF;}
	.st1{opacity:0.6;fill:#FFFFFF;}
	.st2{fill:#002F87;}
	.st3{fill:#009BDE;}
	.st4{fill:#022169;}
</style>
<g>
	<g>
		<path class="st0" d="M205.7,67.3c1.3-0.3,3.3-0.5,5.2-0.5c1.8,0,3.8,0.3,5.3,1.3c1.3,0.9,2.2,2.3,2.2,4.2c0,2.5-1.2,4.4-2.7,5.6
			c-1.6,1.3-3.9,1.8-6.4,1.8c-0.7,0-1.3-0.1-1.7-0.1l-1.4,7.2h-4.2L205.7,67.3z M208.2,76.2c0.4,0.1,0.9,0.1,1.6,0.1
			c2.6,0,4.3-1.7,4.3-3.6c0-1.9-1.4-2.5-3-2.5c-0.8,0-1.4,0.1-1.7,0.1L208.2,76.2z"/>
		<path class="st0" d="M231.4,66.9h4.3l-3.1,16.2h7.7l-0.7,3.7h-11.9L231.4,66.9z"/>
		<path class="st0" d="M257.7,66.9l-2.2,11.5c-0.1,0.7-0.2,1.5-0.2,2.4c0,1.6,1,2.8,2.9,2.8c2.2,0,3.7-1.5,4.4-5.2l2.2-11.5h4.3
			l-2.2,11.3c-1.2,6-3.8,8.9-9.2,8.9c-4.1,0-6.6-2.1-6.6-6.4c0-0.9,0.1-1.8,0.3-2.8l2.1-11.1H257.7z"/>
		<path class="st0" d="M278.8,82.2c1.2,0.7,2.9,1.3,4.7,1.3c1.7,0,3.2-0.8,3.2-2.3c0-1.1-0.9-1.9-2.7-2.8c-2.1-1.2-4.1-2.7-4.1-5.3
			c0-4,3.5-6.5,7.9-6.5c2.4,0,3.8,0.5,4.7,1l-1.3,3.5c-0.7-0.4-2.1-0.9-3.7-0.9c-2,0-3,1-3,2.1c0,1.2,1.2,1.9,2.9,2.8
			c2.4,1.3,4,2.9,4,5.3c0,4.4-3.7,6.7-8.1,6.7c-2.8,0-4.8-0.7-5.7-1.4L278.8,82.2z"/>
	</g>
	<g>
		<g>
			<g>
				<g>
					<path class="st0" d="M230.5,16.2H214c-1.1,0-2.1,0.8-2.3,1.9l-6.7,42.2c-0.1,0.8,0.5,1.6,1.4,1.6h8.4c0.8,0,1.5-0.6,1.6-1.4
						l1.9-12c0.2-1.1,1.1-1.9,2.3-1.9h5.2c10.8,0,17.1-5.2,18.7-15.6c0.7-4.5,0-8.1-2.1-10.6C240.2,17.7,236,16.2,230.5,16.2z
						 M232.4,31.7c-0.9,5.9-5.4,5.9-9.8,5.9h-2.5l1.7-11c0.1-0.7,0.7-1.2,1.4-1.2h1.1c3,0,5.8,0,7.2,1.7
						C232.5,28.1,232.7,29.6,232.4,31.7z"/>
					<path class="st0" d="M113.1,16.2H96.7c-1.1,0-2.1,0.8-2.3,1.9l-6.7,42.2c-0.1,0.8,0.5,1.6,1.4,1.6H97c1.1,0,2.1-0.8,2.3-1.9
						l1.8-11.4c0.2-1.1,1.1-1.9,2.3-1.9h5.2c10.8,0,17.1-5.2,18.7-15.6c0.7-4.5,0-8.1-2.1-10.6C122.8,17.7,118.6,16.2,113.1,16.2z
						 M115,31.7c-0.9,5.9-5.4,5.9-9.8,5.9h-2.5l1.7-11c0.1-0.7,0.7-1.2,1.4-1.2h1.1c3,0,5.8,0,7.2,1.7
						C115.1,28.1,115.3,29.6,115,31.7z"/>
					<path class="st0" d="M162.3,31.5h-7.9c-0.7,0-1.3,0.5-1.4,1.2l-0.3,2.2l-0.6-0.8c-1.7-2.5-5.5-3.3-9.3-3.3
						c-8.7,0-16.1,6.6-17.6,15.9c-0.8,4.6,0.3,9,2.9,12.1c2.4,2.8,5.8,4,9.9,4c7,0,10.9-4.5,10.9-4.5l-0.4,2.2
						c-0.1,0.8,0.5,1.6,1.4,1.6h7.1c1.1,0,2.1-0.8,2.3-1.9l4.3-27C163.8,32.2,163.2,31.5,162.3,31.5z M151.3,46.8
						c-0.8,4.5-4.3,7.5-8.9,7.5c-2.3,0-4.1-0.7-5.3-2.1c-1.2-1.4-1.6-3.3-1.2-5.5c0.7-4.5,4.3-7.6,8.8-7.6c2.2,0,4.1,0.7,5.3,2.1
						C151.2,42.6,151.7,44.6,151.3,46.8z"/>
					<path class="st0" d="M279.7,31.5h-7.9c-0.7,0-1.3,0.5-1.4,1.2l-0.3,2.2l-0.6-0.8c-1.7-2.5-5.5-3.3-9.3-3.3
						c-8.7,0-16.1,6.6-17.6,15.9c-0.8,4.6,0.3,9,2.9,12.1c2.4,2.8,5.8,4,9.9,4c7,0,10.9-4.5,10.9-4.5l-0.4,2.2
						c-0.1,0.8,0.5,1.6,1.4,1.6h7.1c1.1,0,2.1-0.8,2.3-1.9l4.3-27C281.2,32.2,280.5,31.5,279.7,31.5z M268.7,46.8
						c-0.8,4.5-4.3,7.5-8.9,7.5c-2.3,0-4.1-0.7-5.3-2.1c-1.2-1.4-1.6-3.3-1.2-5.5c0.7-4.5,4.3-7.6,8.8-7.6c2.2,0,4.1,0.7,5.3,2.1
						C268.6,42.6,269.1,44.6,268.7,46.8z"/>
					<path class="st0" d="M204.3,31.5h-7.9c-0.8,0-1.5,0.4-1.9,1l-10.9,16.1l-4.6-15.5c-0.3-1-1.2-1.6-2.2-1.6h-7.8
						c-0.9,0-1.6,0.9-1.3,1.8l8.7,25.6l-8.2,11.6c-0.6,0.9,0,2.2,1.1,2.2h7.9c0.8,0,1.5-0.4,1.9-1l26.3-38
						C206,32.7,205.4,31.5,204.3,31.5z"/>
					<path class="st0" d="M289,17.4l-6.8,43c-0.1,0.8,0.5,1.6,1.4,1.6h6.8c1.1,0,2.1-0.8,2.3-1.9l6.7-42.2c0.1-0.8-0.5-1.6-1.4-1.6
						h-7.6C289.7,16.2,289.1,16.7,289,17.4z"/>
				</g>
			</g>
		</g>
	</g>
	<g>
		<path class="st1" d="M55.5,18.4c0.9-5.6,0-9.5-3.1-13C49,1.6,43,0,35.2,0H12.6C11,0,9.7,1.2,9.4,2.7L0,62.3
			c-0.2,1.2,0.7,2.2,1.9,2.2h13.9l-1,6.1c-0.2,1,0.6,2,1.7,2h11.7c1.4,0,2.6-1,2.8-2.4l0.1-0.6l2.2-14l0.1-0.8
			c0.2-1.4,1.4-2.4,2.8-2.4h1.8c11.4,0,20.3-4.6,22.9-18c1.1-5.6,0.5-10.2-2.4-13.5C57.8,19.9,56.7,19.1,55.5,18.4L55.5,18.4"/>
		<path class="st1" d="M55.5,18.4c0.9-5.6,0-9.5-3.1-13C49,1.6,43,0,35.2,0H12.6C11,0,9.7,1.2,9.4,2.7L0,62.3
			c-0.2,1.2,0.7,2.2,1.9,2.2h13.9l3.5-22.2l-0.1,0.7c0.2-1.6,1.6-2.7,3.2-2.7h6.6c13,0,23.2-5.3,26.2-20.6
			C55.3,19.3,55.4,18.9,55.5,18.4"/>
		<path class="st0" d="M23.1,18.5c0.1-0.9,0.8-1.7,1.6-2.1c0.4-0.2,0.8-0.3,1.2-0.3h17.7c2.1,0,4.1,0.1,5.8,0.4
			c0.5,0.1,1,0.2,1.5,0.3s1,0.2,1.4,0.4c0.2,0.1,0.4,0.1,0.7,0.2c0.9,0.3,1.7,0.6,2.4,1c0.9-5.6,0-9.5-3.1-13C49,1.6,43,0,35.2,0
			H12.6C11,0,9.7,1.2,9.4,2.7L0,62.3c-0.2,1.2,0.7,2.2,1.9,2.2h13.9l3.5-22.2L23.1,18.5z"/>
	</g>
</g>
<g>
	<g>
		<path class="st2" d="M183.6-69.7c1.3-0.3,3.3-0.5,5.2-0.5c1.8,0,3.8,0.3,5.3,1.3c1.3,0.9,2.2,2.3,2.2,4.2c0,2.5-1.2,4.4-2.7,5.6
			c-1.6,1.3-3.9,1.8-6.4,1.8c-0.7,0-1.3-0.1-1.7-0.1l-1.4,7.2h-4.2L183.6-69.7z M186.1-60.8c0.4,0.1,0.9,0.1,1.6,0.1
			c2.6,0,4.3-1.7,4.3-3.6c0-1.9-1.4-2.5-3-2.5c-0.8,0-1.4,0.1-1.7,0.1L186.1-60.8z"/>
		<path class="st2" d="M209.2-70.1h4.3l-3.1,16.2h7.7l-0.7,3.7h-11.9L209.2-70.1z"/>
		<path class="st2" d="M235.6-70.1l-2.2,11.5c-0.1,0.7-0.2,1.5-0.2,2.4c0,1.6,1,2.8,2.9,2.8c2.2,0,3.7-1.5,4.4-5.2l2.2-11.5h4.3
			l-2.2,11.3c-1.2,6-3.8,8.9-9.2,8.9c-4.1,0-6.6-2.1-6.6-6.4c0-0.9,0.1-1.8,0.3-2.8l2.1-11.1H235.6z"/>
		<path class="st2" d="M256.6-54.8c1.2,0.7,2.9,1.3,4.7,1.3c1.7,0,3.2-0.8,3.2-2.3c0-1.1-0.9-1.9-2.7-2.8c-2.1-1.2-4.1-2.7-4.1-5.3
			c0-4,3.5-6.5,7.9-6.5c2.4,0,3.8,0.5,4.7,1l-1.3,3.5c-0.7-0.4-2.1-0.9-3.7-0.9c-2,0-3,1-3,2.1c0,1.2,1.2,1.9,2.9,2.8
			c2.4,1.3,4,2.9,4,5.3c0,4.4-3.7,6.7-8.1,6.7c-2.8,0-4.8-0.7-5.7-1.4L256.6-54.8z"/>
	</g>
	<g>
		<g>
			<g>
				<g>
					<path class="st3" d="M208.3-120.7h-16.5c-1.1,0-2.1,0.8-2.3,1.9L183-76.6c-0.1,0.8,0.5,1.6,1.4,1.6h8.4c0.8,0,1.5-0.6,1.6-1.4
						l1.9-12c0.2-1.1,1.1-1.9,2.3-1.9h5.2c10.8,0,17.1-5.2,18.7-15.6c0.7-4.5,0-8.1-2.1-10.6C218-119.3,213.8-120.7,208.3-120.7z
						 M210.2-105.3c-0.9,5.9-5.4,5.9-9.8,5.9H198l1.7-11c0.1-0.7,0.7-1.2,1.4-1.2h1.1c3,0,5.8,0,7.2,1.7
						C210.3-108.9,210.6-107.4,210.2-105.3z"/>
					<path class="st2" d="M91-120.7H74.5c-1.1,0-2.1,0.8-2.3,1.9l-6.7,42.2c-0.1,0.8,0.5,1.6,1.4,1.6h7.9c1.1,0,2.1-0.8,2.3-1.9
						l1.8-11.4c0.2-1.1,1.1-1.9,2.3-1.9h5.2c10.8,0,17.1-5.2,18.7-15.6c0.7-4.5,0-8.1-2.1-10.6C100.6-119.3,96.5-120.7,91-120.7z
						 M92.9-105.3c-0.9,5.9-5.4,5.9-9.8,5.9h-2.5l1.7-11c0.1-0.7,0.7-1.2,1.4-1.2h1.1c3,0,5.8,0,7.2,1.7
						C92.9-108.9,93.2-107.4,92.9-105.3z"/>
					<path class="st2" d="M140.1-105.5h-7.9c-0.7,0-1.3,0.5-1.4,1.2l-0.3,2.2L130-103c-1.7-2.5-5.5-3.3-9.3-3.3
						c-8.7,0-16.1,6.6-17.6,15.9c-0.8,4.6,0.3,9,2.9,12.1c2.4,2.8,5.8,4,9.9,4c7,0,10.9-4.5,10.9-4.5l-0.4,2.2
						c-0.1,0.8,0.5,1.6,1.4,1.6h7.1c1.1,0,2.1-0.8,2.3-1.9l4.3-27C141.6-104.8,141-105.5,140.1-105.5z M129.2-90.2
						c-0.8,4.5-4.3,7.5-8.9,7.5c-2.3,0-4.1-0.7-5.3-2.1c-1.2-1.4-1.6-3.3-1.2-5.5c0.7-4.5,4.3-7.6,8.8-7.6c2.2,0,4.1,0.7,5.3,2.1
						C129-94.3,129.5-92.4,129.2-90.2z"/>
					<path class="st3" d="M257.5-105.5h-7.9c-0.7,0-1.3,0.5-1.4,1.2l-0.3,2.2l-0.6-0.8c-1.7-2.5-5.5-3.3-9.3-3.3
						c-8.7,0-16.1,6.6-17.6,15.9c-0.8,4.6,0.3,9,2.9,12.1c2.4,2.8,5.8,4,9.9,4c7,0,10.9-4.5,10.9-4.5l-0.4,2.2
						c-0.1,0.8,0.5,1.6,1.4,1.6h7.1c1.1,0,2.1-0.8,2.3-1.9l4.3-27C259-104.8,258.4-105.5,257.5-105.5z M246.5-90.2
						c-0.8,4.5-4.3,7.5-8.9,7.5c-2.3,0-4.1-0.7-5.3-2.1c-1.2-1.4-1.6-3.3-1.2-5.5c0.7-4.5,4.3-7.6,8.8-7.6c2.2,0,4.1,0.7,5.3,2.1
						C246.4-94.3,246.9-92.4,246.5-90.2z"/>
					<path class="st2" d="M182.1-105.5h-7.9c-0.8,0-1.5,0.4-1.9,1l-10.9,16.1l-4.6-15.5c-0.3-1-1.2-1.6-2.2-1.6h-7.8
						c-0.9,0-1.6,0.9-1.3,1.8l8.7,25.6L146-66.5c-0.6,0.9,0,2.2,1.1,2.2h7.9c0.8,0,1.5-0.4,1.9-1l26.3-38
						C183.9-104.3,183.2-105.5,182.1-105.5z"/>
					<path class="st3" d="M266.8-119.6l-6.8,43c-0.1,0.8,0.5,1.6,1.4,1.6h6.8c1.1,0,2.1-0.8,2.3-1.9l6.7-42.2
						c0.1-0.8-0.5-1.6-1.4-1.6h-7.6C267.5-120.7,266.9-120.2,266.8-119.6z"/>
				</g>
			</g>
		</g>
	</g>
	<g>
		<path class="st3" d="M33.3-118.5c0.9-5.6,0-9.5-3.1-13c-3.4-3.8-9.4-5.5-17.2-5.5H-9.5c-1.6,0-2.9,1.2-3.2,2.7l-9.4,59.6
			c-0.2,1.2,0.7,2.2,1.9,2.2h13.9l-1,6.1c-0.2,1,0.6,2,1.7,2H6.2c1.4,0,2.6-1,2.8-2.4l0.1-0.6l2.2-14l0.1-0.8
			c0.2-1.4,1.4-2.4,2.8-2.4H16c11.4,0,20.3-4.6,22.9-18c1.1-5.6,0.5-10.2-2.4-13.5C35.6-117,34.6-117.9,33.3-118.5L33.3-118.5"/>
		<path class="st4" d="M33.3-118.5c0.9-5.6,0-9.5-3.1-13c-3.4-3.8-9.4-5.5-17.2-5.5H-9.5c-1.6,0-2.9,1.2-3.2,2.7l-9.4,59.6
			c-0.2,1.2,0.7,2.2,1.9,2.2h13.9l3.5-22.2l-0.1,0.7c0.2-1.6,1.6-2.7,3.2-2.7h6.6c13,0,23.2-5.3,26.2-20.6
			C33.2-117.7,33.2-118.1,33.3-118.5"/>
		<path class="st2" d="M1-118.5c0.1-0.9,0.8-1.7,1.6-2.1c0.4-0.2,0.8-0.3,1.2-0.3h17.7c2.1,0,4.1,0.1,5.8,0.4c0.5,0.1,1,0.2,1.5,0.3
			c0.5,0.1,1,0.2,1.4,0.4c0.2,0.1,0.4,0.1,0.7,0.2c0.9,0.3,1.7,0.6,2.4,1c0.9-5.6,0-9.5-3.1-13c-3.4-3.8-9.4-5.5-17.2-5.5H-9.5
			c-1.6,0-2.9,1.2-3.2,2.7l-9.4,59.6c-0.2,1.2,0.7,2.2,1.9,2.2h13.9l3.5-22.2L1-118.5z"/>
	</g>
</g>
</svg>
